<svg width="24" height="24" viewBox="0 0 24 24" fill="none" xmlns="http://www.w3.org/2000/svg">
    <path d="M19.9881 7.21053H4.0119C3.72967 7.19388 3.46544 7.0686 3.2763 6.86179C3.08716 6.65497 2.9883 6.38322 3.0011 6.10526C2.9883 5.82731 3.08716 5.55555 3.2763 5.34874C3.46544 5.14192 3.72967 5.01665 4.0119 5H19.9881C20.2703 5.01665 20.5346 5.14192 20.7237 5.34874C20.9128 5.55555 21.0117 5.82731 20.9989 6.10526C21.0117 6.38322 20.9128 6.65497 20.7237 6.86179C20.5346 7.0686 20.2703 7.19388 19.9881 7.21053ZM19.9881 13.1053H4.0119C3.72967 13.0886 3.46544 12.9633 3.2763 12.7565C3.08716 12.5497 2.9883 12.278 3.0011 12C2.9883 11.722 3.08716 11.4503 3.2763 11.2435C3.46544 11.0367 3.72967 10.9114 4.0119 10.8947H19.9881C20.2703 10.9114 20.5346 11.0367 20.7237 11.2435C20.9128 11.4503 21.0117 11.722 20.9989 12C21.0117 12.278 20.9128 12.5497 20.7237 12.7565C20.5346 12.9633 20.2703 13.0886 19.9881 13.1053ZM19.9881 19H4.0119C3.73899 18.9653 3.48827 18.8339 3.3066 18.6305C3.12493 18.4271 3.02473 18.1655 3.02473 17.8947C3.02473 17.6239 3.12493 17.3624 3.3066 17.159C3.48827 16.9556 3.73899 16.8242 4.0119 16.7895H19.9881C20.261 16.8242 20.5117 16.9556 20.6934 17.159C20.8751 17.3624 20.9753 17.6239 20.9753 17.8947C20.9753 18.1655 20.8751 18.4271 20.6934 18.6305C20.5117 18.8339 20.261 18.9653 19.9881 19Z" fill="#111111"/>
</svg>
