<svg width="60" height="60" viewBox="0 0 60 60" fill="none" xmlns="http://www.w3.org/2000/svg">
    <circle cx="30" cy="30" r="28.5" fill="#D01012" stroke="#111111" stroke-width="3"/>
    <path d="M28.96 29.5283H30.6035C32.1396 29.5283 33.2891 29.2275 34.0518 28.626C34.8145 28.0137 35.1958 27.1274 35.1958 25.9673C35.1958 24.7964 34.8735 23.9316 34.229 23.373C33.5952 22.8145 32.5962 22.5352 31.2319 22.5352H28.96V29.5283ZM40.2393 25.79C40.2393 28.3252 39.4443 30.2642 37.8545 31.6069C36.2754 32.9497 34.0249 33.6211 31.103 33.6211H28.96V42H23.9648V18.4424H31.4897C34.3472 18.4424 36.5171 19.0601 37.9995 20.2954C39.4927 21.52 40.2393 23.3516 40.2393 25.79Z" fill="#F8CF47"/>
    <path fill-rule="evenodd" clip-rule="evenodd" d="M34.229 23.373C33.7139 22.9191 32.9576 22.6496 31.96 22.5645C31.7301 22.545 31.4874 22.5352 31.2319 22.5352H28.96V29.5283H30.6035C31.0953 29.5283 31.5474 29.4975 31.96 29.4358C32.836 29.3049 33.5332 29.035 34.0518 28.626C34.8145 28.0137 35.1958 27.1274 35.1958 25.9673C35.1958 24.7964 34.8735 23.9316 34.229 23.373ZM32.163 26.2894C32.1752 26.2457 32.1958 26.1458 32.1958 25.9673C32.1958 25.8156 32.1856 25.7047 32.1741 25.6277C32.1171 25.6128 32.0462 25.5976 31.96 25.584V26.3713C32.0652 26.3382 32.129 26.308 32.163 26.2894ZM32.3158 25.6757C32.3158 25.6757 32.3153 25.6755 32.3143 25.6749ZM31.96 45H20.9648V15.4424H31.4897C34.718 15.4424 37.6838 16.132 39.9109 17.9831C42.2692 19.9223 43.2393 22.7137 43.2393 25.79C43.2393 28.9957 42.2023 31.8595 39.7941 33.8956C37.6863 35.6861 34.9651 36.4803 31.96 36.6038V45ZM28.96 33.6211H31.103C34.0249 33.6211 36.2754 32.9497 37.8545 31.6069C39.4443 30.2642 40.2393 28.3252 40.2393 25.79C40.2393 23.3516 39.4927 21.52 37.9995 20.2954C36.5171 19.0601 34.3472 18.4424 31.4897 18.4424H23.9648V42H28.96V33.6211Z" fill="#111111"/>
</svg>
