<svg width="24" height="24" viewBox="0 0 24 24" fill="none" xmlns="http://www.w3.org/2000/svg">
    <path fill-rule="evenodd" clip-rule="evenodd" d="M11.7909 2.83586C12.4339 2.99659 12.8248 3.64812 12.6641 4.29107L12.1641 6.29107C12.0033 6.93402 11.3518 7.32494 10.7089 7.1642C10.0659 7.00346 9.675 6.35194 9.83574 5.70898L10.3357 3.70899C10.4965 3.06603 11.148 2.67512 11.7909 2.83586ZM3.81419 6.18574C3.90346 6.7603 4.40033 7.20003 4.99991 7.20003C5.59949 7.20003 6.09636 6.7603 6.18562 6.18574C6.76018 6.09648 7.19991 5.59961 7.19991 5.00003C7.19991 4.40045 6.76018 3.90358 6.18562 3.81431C6.09636 3.23976 5.59949 2.80003 4.99991 2.80003C4.40033 2.80003 3.90346 3.23976 3.81419 3.81431C3.23964 3.90358 2.79991 4.40045 2.79991 5.00003C2.79991 5.5996 3.23964 6.09648 3.81419 6.18574ZM17.8142 6.18574C17.9035 6.7603 18.4003 7.20003 18.9999 7.20003C19.5995 7.20003 20.0964 6.7603 20.1856 6.18574C20.7602 6.09648 21.1999 5.5996 21.1999 5.00003C21.1999 4.40045 20.7602 3.90358 20.1856 3.81431C20.0964 3.23976 19.5995 2.80003 18.9999 2.80003C18.4003 2.80003 17.9035 3.23976 17.8142 3.81431C17.2396 3.90358 16.7999 4.40045 16.7999 5.00003C16.7999 5.59961 17.2396 6.09648 17.8142 6.18574ZM15.8484 8.1515C16.3171 8.62013 16.3171 9.37993 15.8484 9.84856L14.8484 10.8486C14.3798 11.3172 13.62 11.3172 13.1514 10.8486C12.6827 10.3799 12.6828 9.62013 13.1514 9.1515L14.1514 8.1515C14.62 7.68287 15.3798 7.68287 15.8484 8.1515ZM7.26959 8.81896C7.65632 8.74944 8.05258 8.87366 8.33042 9.1515L14.8484 15.6695C15.1262 15.9473 15.2505 16.3435 15.181 16.7303C15.1115 17.117 14.8571 17.4452 14.4999 17.6089L4.91934 22.0006C4.51081 22.1872 4.05503 22.2444 3.61307 22.1646C3.17111 22.0849 2.76408 21.872 2.44651 21.5544C2.12895 21.2368 1.91603 20.8298 1.83628 20.3878C1.75653 19.9459 1.81377 19.4901 2.00031 19.0816L6.39098 9.50012C6.55467 9.14291 6.88286 8.88847 7.26959 8.81896ZM7.85379 12.069L4.40431 19.5966L11.9311 16.1463L7.85379 12.069ZM21.1641 12.209C21.3248 12.8519 20.9339 13.5035 20.291 13.6642L18.291 14.1642C17.648 14.3249 16.9965 13.934 16.8357 13.2911C16.675 12.6481 17.0659 11.9966 17.7089 11.8359L19.7089 11.3359C20.3518 11.1751 21.0033 11.566 21.1641 12.209ZM17.8142 20.1857C17.9035 20.7603 18.4003 21.2 18.9999 21.2C19.5995 21.2 20.0964 20.7603 20.1856 20.1857C20.7602 20.0965 21.1999 19.5996 21.1999 19C21.1999 18.4005 20.7602 17.9036 20.1856 17.8143C20.0964 17.2398 19.5995 16.8 18.9999 16.8C18.4003 16.8 17.9035 17.2398 17.8142 17.8143C17.2396 17.9036 16.7999 18.4004 16.7999 19C16.7999 19.5996 17.2396 20.0965 17.8142 20.1857Z" fill="#666666"/>
</svg>
