<svg width="24" height="24" viewBox="0 0 24 24" fill="none" xmlns="http://www.w3.org/2000/svg">
    <g clip-path="url(#clip0_513_1932)">
        <path d="M4.59259 12.4632L2.66667 14.3891C2.53931 14.5589 2.37696 14.6994 2.1906 14.801C2.00424 14.9026 1.79822 14.963 1.5865 14.978C1.37478 14.9931 1.1623 14.9624 0.963444 14.8882C0.764588 14.814 0.584003 14.6979 0.433916 14.5478C0.283829 14.3977 0.167745 14.2171 0.0935248 14.0183C0.0193045 13.8194 -0.0113193 13.607 0.00372725 13.3952C0.0187738 13.1835 0.0791393 12.9775 0.180736 12.7911C0.282333 12.6048 0.422789 12.4424 0.592593 12.3151L10.963 1.9447C11.2399 1.67325 11.6122 1.52121 12 1.52121C12.3878 1.52121 12.7601 1.67325 13.037 1.9447L23.4074 12.3151C23.5772 12.4424 23.7177 12.6048 23.8193 12.7911C23.9209 12.9775 23.9812 13.1835 23.9963 13.3952C24.0113 13.607 23.9807 13.8194 23.9065 14.0183C23.8323 14.2171 23.7162 14.3977 23.5661 14.5478C23.416 14.6979 23.2354 14.814 23.0366 14.8882C22.8377 14.9624 22.6252 14.9931 22.4135 14.978C22.2018 14.963 21.9958 14.9026 21.8094 14.801C21.623 14.6994 21.4607 14.5589 21.3333 14.3891L19.4074 12.4632V20.0188C19.4077 20.5955 19.1838 21.1498 18.7829 21.5645C18.3821 21.9792 17.8357 22.2218 17.2593 22.241H6.81481C6.22544 22.241 5.66021 22.0069 5.24347 21.5901C4.82672 21.1734 4.59259 20.6081 4.59259 20.0188V12.4632ZM7.55555 9.50026V19.278H16.4444V9.50026L12 5.05581L7.55555 9.50026Z" fill="#666666"/>
    </g>
    <defs>
        <clipPath id="clip0_513_1932">
            <rect width="24" height="24" fill="white"/>
        </clipPath>
    </defs>
</svg>
