<svg width="46" height="46" viewBox="0 0 46 46" fill="none" xmlns="http://www.w3.org/2000/svg">    <circle cx="23" cy="23" r="21.5" fill="#D01012" stroke="#111111" stroke-width="3"/>    <path fill-rule="evenodd" clip-rule="evenodd" d="M26.1326 18.0911C25.7511 17.7548 25.1908 17.5552 24.4518 17.4922C24.2816 17.4777 24.1018 17.4705 23.9126 17.4705H22.2296V22.6506H23.4471C23.8114 22.6506 24.1463 22.6277 24.4518 22.5821C25.1007 22.4851 25.6172 22.2851 26.0013 21.9822C26.5663 21.5286 26.8488 20.8722 26.8488 20.0128C26.8488 19.1454 26.61 18.5049 26.1326 18.0911ZM24.6022 20.2514C24.6113 20.219 24.6265 20.145 24.6265 20.0128C24.6265 19.9004 24.619 19.8182 24.6105 19.7613C24.5682 19.7502 24.5157 19.7389 24.4518 19.7289V20.312C24.5298 20.2875 24.5771 20.2652 24.6022 20.2514ZM24.7154 19.7968C24.7154 19.7968 24.715 19.7966 24.7143 19.7962L24.7154 19.7968ZM24.4518 34.1111H16.3073V12.2166H24.1035C26.4948 12.2166 28.6917 12.7274 30.3414 14.0986C32.0883 15.535 32.8069 17.6027 32.8069 19.8815C32.8069 22.2561 32.0387 24.3774 30.2549 25.8856C28.6936 27.2119 26.6778 27.8002 24.4518 27.8917V34.1111ZM22.2296 25.6823H23.8171C25.9814 25.6823 27.6485 25.1849 28.8182 24.1903C29.9958 23.1956 30.5847 21.7594 30.5847 19.8815C30.5847 18.0752 30.0316 16.7185 28.9256 15.8114C27.8275 14.8963 26.2201 14.4388 24.1035 14.4388H18.5295V31.8889H22.2296V25.6823Z" fill="#111111"/>    <path d="M22.2296 22.6506H23.4471C24.585 22.6506 25.4364 22.4278 26.0013 21.9822C26.5663 21.5286 26.8488 20.8722 26.8488 20.0128C26.8488 19.1455 26.6101 18.5049 26.1326 18.0911C25.6631 17.6774 24.9231 17.4705 23.9126 17.4705H22.2296V22.6506ZM30.5847 19.8815C30.5847 21.7594 29.9958 23.1957 28.8182 24.1903C27.6485 25.1849 25.9814 25.6823 23.8171 25.6823H22.2296V31.8889H18.5295V14.4388H24.1035C26.2202 14.4388 27.8275 14.8963 28.9256 15.8114C30.0316 16.7185 30.5847 18.0752 30.5847 19.8815Z" fill="white"/></svg>