<svg width="24" height="24" viewBox="0 0 24 24" fill="none" xmlns="http://www.w3.org/2000/svg">
    <g clip-path="url(#clip0_513_1929)">
        <path d="M11.982 2.91C15.6181 2.91 19.2551 5.33 19.2551 10.182C19.2551 13.396 16.0551 17.672 13.9021 20.196C13.6651 20.4737 13.3707 20.6967 13.0393 20.8496C12.7078 21.0025 12.3471 21.0817 11.982 21.0817C11.617 21.0817 11.2563 21.0025 10.9248 20.8496C10.5934 20.6967 10.299 20.4737 10.062 20.196C7.90905 17.673 4.70905 13.396 4.70905 10.182C4.70905 5.331 8.34505 2.909 11.982 2.909V2.91ZM11.982 0C6.89005 0 1.80005 3.498 1.80005 10.182C1.80005 13.375 3.83605 17.382 7.85005 22.087C8.36009 22.6843 8.99357 23.1638 9.70682 23.4927C10.4201 23.8215 11.1961 23.9918 11.9816 23.9918C12.767 23.9918 13.543 23.8215 14.2563 23.4927C14.9695 23.1638 15.603 22.6843 16.1131 22.087C20.1271 17.382 22.1631 13.375 22.1631 10.182C22.1641 3.498 17.074 0 11.983 0L11.982 0Z" fill="#666666"/>
        <path d="M11.9571 13.091C13.5637 13.091 14.8661 11.7886 14.8661 10.182C14.8661 8.57538 13.5637 7.27298 11.9571 7.27298C10.3505 7.27298 9.0481 8.57538 9.0481 10.182C9.0481 11.7886 10.3505 13.091 11.9571 13.091Z" fill="#666666"/>
    </g>
    <defs>
        <clipPath id="clip0_513_1929">
            <rect width="24" height="24" fill="white"/>
        </clipPath>
    </defs>
</svg>
