<svg width="20" height="20" viewBox="0 0 20 20" fill="none" xmlns="http://www.w3.org/2000/svg">
    <g clip-path="url(#clip0_326:784)">
        <path d="M2.18172 2.16163C5.05041 -0.666651 9.71708 -0.747459 12.6868 2.16163C15.313 4.78789 15.5757 8.8283 13.4949 11.7576L19.6767 17.9394C20.7474 19.0101 18.9696 20.7071 17.9393 19.6768L11.7777 13.495C9.25243 15.2727 5.15142 15.6768 2.18172 12.6869C-0.727365 9.79799 -0.727365 5.09092 2.18172 2.18183V2.16163ZM10.9696 10.9697C12.8888 9.05052 12.9292 5.8788 10.9696 3.899C9.01001 1.91921 5.85849 1.97981 3.8989 3.899C1.9393 5.8182 2.04031 9.09092 3.8989 10.9697C5.75748 12.8485 9.05041 12.8889 10.9696 10.9697Z" fill="#111111"/>
    </g>
    <defs>
        <clipPath id="clip0_326:784">
            <rect width="20" height="20" fill="white" transform="matrix(-1 0 0 1 20 0)"/>
        </clipPath>
    </defs>
</svg>
